<mxfile host="app.diagrams.net" modified="2023-09-04T07:01:27.400Z" agent="Mozilla/5.0 (Windows NT 10.0; Win64; x64) AppleWebKit/537.36 (KHTML, like Gecko) Chrome/116.0.0.0 Safari/537.36 Edg/116.0.1938.69" etag="RMpXYMYbVwIYI5hVhJqN" version="21.7.2" type="github">
  <diagram name="Page-1" id="iu6-sSUJ4ihPyZDUf0bW">
    <mxGraphModel dx="1508" dy="837" grid="1" gridSize="10" guides="1" tooltips="1" connect="1" arrows="1" fold="1" page="1" pageScale="1" pageWidth="827" pageHeight="1169" math="0" shadow="0">
      <root>
        <mxCell id="0" />
        <mxCell id="1" parent="0" />
        <mxCell id="FDHz_hMkjKkoFL7738hm-7" style="edgeStyle=orthogonalEdgeStyle;rounded=0;orthogonalLoop=1;jettySize=auto;html=1;exitX=1;exitY=0.5;exitDx=0;exitDy=0;entryX=0;entryY=0.5;entryDx=0;entryDy=0;" parent="1" source="FDHz_hMkjKkoFL7738hm-2" target="FDHz_hMkjKkoFL7738hm-6" edge="1">
          <mxGeometry relative="1" as="geometry" />
        </mxCell>
        <mxCell id="FDHz_hMkjKkoFL7738hm-12" style="edgeStyle=orthogonalEdgeStyle;rounded=0;orthogonalLoop=1;jettySize=auto;html=1;exitX=0.851;exitY=0.997;exitDx=0;exitDy=0;entryX=0;entryY=0.5;entryDx=0;entryDy=0;exitPerimeter=0;" parent="1" source="FDHz_hMkjKkoFL7738hm-2" target="FDHz_hMkjKkoFL7738hm-11" edge="1">
          <mxGeometry relative="1" as="geometry" />
        </mxCell>
        <mxCell id="aCJt4riducOxjOUhIQ2y-2" style="edgeStyle=orthogonalEdgeStyle;rounded=0;orthogonalLoop=1;jettySize=auto;html=1;exitX=0.75;exitY=1;exitDx=0;exitDy=0;entryX=0;entryY=0.75;entryDx=0;entryDy=0;" edge="1" parent="1" source="FDHz_hMkjKkoFL7738hm-2" target="aCJt4riducOxjOUhIQ2y-1">
          <mxGeometry relative="1" as="geometry" />
        </mxCell>
        <mxCell id="aCJt4riducOxjOUhIQ2y-8" style="edgeStyle=orthogonalEdgeStyle;rounded=0;orthogonalLoop=1;jettySize=auto;html=1;exitX=1;exitY=1;exitDx=0;exitDy=0;entryX=-0.004;entryY=0.623;entryDx=0;entryDy=0;entryPerimeter=0;" edge="1" parent="1" source="FDHz_hMkjKkoFL7738hm-2" target="aCJt4riducOxjOUhIQ2y-7">
          <mxGeometry relative="1" as="geometry" />
        </mxCell>
        <mxCell id="FDHz_hMkjKkoFL7738hm-2" value="this.remuxController.remux(chunks)" style="rounded=0;whiteSpace=wrap;html=1;" parent="1" vertex="1">
          <mxGeometry x="190" y="270" width="210" height="60" as="geometry" />
        </mxCell>
        <mxCell id="FDHz_hMkjKkoFL7738hm-4" style="edgeStyle=orthogonalEdgeStyle;rounded=0;orthogonalLoop=1;jettySize=auto;html=1;exitX=0.5;exitY=1;exitDx=0;exitDy=0;exitPerimeter=0;entryX=0.5;entryY=0;entryDx=0;entryDy=0;" parent="1" source="FDHz_hMkjKkoFL7738hm-3" target="FDHz_hMkjKkoFL7738hm-2" edge="1">
          <mxGeometry relative="1" as="geometry" />
        </mxCell>
        <mxCell id="FDHz_hMkjKkoFL7738hm-3" value="feed()" style="strokeWidth=2;html=1;shape=mxgraph.flowchart.start_1;whiteSpace=wrap;" parent="1" vertex="1">
          <mxGeometry x="340" y="90" width="100" height="60" as="geometry" />
        </mxCell>
        <mxCell id="aCJt4riducOxjOUhIQ2y-9" style="edgeStyle=orthogonalEdgeStyle;rounded=0;orthogonalLoop=1;jettySize=auto;html=1;exitX=0.5;exitY=1;exitDx=0;exitDy=0;entryX=0.5;entryY=0;entryDx=0;entryDy=0;" edge="1" parent="1" source="FDHz_hMkjKkoFL7738hm-6" target="aCJt4riducOxjOUhIQ2y-7">
          <mxGeometry relative="1" as="geometry" />
        </mxCell>
        <mxCell id="FDHz_hMkjKkoFL7738hm-6" value="H264Remuxer.remux(frames)" style="rounded=0;whiteSpace=wrap;html=1;" parent="1" vertex="1">
          <mxGeometry x="600" y="270" width="190" height="60" as="geometry" />
        </mxCell>
        <mxCell id="aCJt4riducOxjOUhIQ2y-4" style="edgeStyle=orthogonalEdgeStyle;rounded=0;orthogonalLoop=1;jettySize=auto;html=1;exitX=1;exitY=0.25;exitDx=0;exitDy=0;entryX=0.25;entryY=0;entryDx=0;entryDy=0;" edge="1" parent="1" source="FDHz_hMkjKkoFL7738hm-11" target="aCJt4riducOxjOUhIQ2y-3">
          <mxGeometry relative="1" as="geometry" />
        </mxCell>
        <mxCell id="aCJt4riducOxjOUhIQ2y-6" style="edgeStyle=orthogonalEdgeStyle;rounded=0;orthogonalLoop=1;jettySize=auto;html=1;exitX=1;exitY=0.5;exitDx=0;exitDy=0;entryX=0;entryY=0.5;entryDx=0;entryDy=0;" edge="1" parent="1" source="FDHz_hMkjKkoFL7738hm-11" target="aCJt4riducOxjOUhIQ2y-5">
          <mxGeometry relative="1" as="geometry" />
        </mxCell>
        <mxCell id="FDHz_hMkjKkoFL7738hm-11" value="jmuxer.onBuffer(data)" style="rounded=0;whiteSpace=wrap;html=1;" parent="1" vertex="1">
          <mxGeometry x="620" y="460" width="150" height="60" as="geometry" />
        </mxCell>
        <mxCell id="aCJt4riducOxjOUhIQ2y-1" value="H264Remuxer.flush()" style="rounded=0;whiteSpace=wrap;html=1;" vertex="1" parent="1">
          <mxGeometry x="590" y="580" width="190" height="60" as="geometry" />
        </mxCell>
        <mxCell id="aCJt4riducOxjOUhIQ2y-3" value="&amp;nbsp;this.bufferControllers[data.type].feed(data.payload);&lt;br&gt;&lt;br&gt;this.queue = appendByteArray(this.queue, data);" style="rounded=0;whiteSpace=wrap;html=1;" vertex="1" parent="1">
          <mxGeometry x="931" y="540" width="310" height="70" as="geometry" />
        </mxCell>
        <mxCell id="aCJt4riducOxjOUhIQ2y-5" value="this.bufferControllers[type].doAppend();&lt;br&gt;&lt;br&gt;this.sourceBuffer.appendBuffer(this.queue);" style="rounded=0;whiteSpace=wrap;html=1;" vertex="1" parent="1">
          <mxGeometry x="931" y="630" width="310" height="70" as="geometry" />
        </mxCell>
        <mxCell id="aCJt4riducOxjOUhIQ2y-10" style="edgeStyle=orthogonalEdgeStyle;rounded=0;orthogonalLoop=1;jettySize=auto;html=1;entryX=0.5;entryY=0;entryDx=0;entryDy=0;" edge="1" parent="1" source="aCJt4riducOxjOUhIQ2y-7" target="FDHz_hMkjKkoFL7738hm-11">
          <mxGeometry relative="1" as="geometry" />
        </mxCell>
        <mxCell id="aCJt4riducOxjOUhIQ2y-7" value="H264Remuxer.getPayload()" style="rounded=0;whiteSpace=wrap;html=1;" vertex="1" parent="1">
          <mxGeometry x="600" y="350" width="190" height="60" as="geometry" />
        </mxCell>
      </root>
    </mxGraphModel>
  </diagram>
</mxfile>
